<?xml version="1.0" encoding="UTF-8"?>
<svg xmlns="http://www.w3.org/2000/svg" viewBox="0 0 1024 1024" role="img">
  <path fill="currentColor" d="M860.0 106.0H164.0C99.92811393737793 106.0 48.0 157.94625663757324 48.0 222.0V802.0C48.0 866.0537433624268 99.92811393737793 918.0 164.0 918.0H860.0C924.0718860626221 918.0 976.0 866.0537433624268 976.0 802.0V222.0C976.0 157.94625663757324 923.9812278747559 106.0 860.0 106.0ZM889.0 802.0C889.0 817.9935092926025 875.9898586273193 831.0 860.0 831.0H164.0C148.0101137161255 831.0 134.99997234344482 817.9935092926025 134.99997234344482 802.0V222.0C134.99997234344482 206.00649070739746 148.0101137161255 193.0 164.0 193.0H860.0C875.9898586273193 193.0 889.0 206.00649070739746 889.0 222.0V802.0ZM483.0 512.0C483.0 499.8218231201172 477.8742446899414 488.14749336242676 468.8969268798828 479.9368705749512L294.8969268798828 320.4368705749512C277.28125 304.28748893737793 249.73125553131104 305.375 233.41875553131104 323.13747787475586C217.10625553131104 340.90001106262207 218.41125774383545 368.44997787475586 236.1375331878662 384.58127212524414L375.1562776565552 512.0L236.1375331878662 639.4368705749512C218.43664646148682 655.6369743347168 217.25125885009766 683.1543617248535 233.47495365142822 700.8987522125244C241.93752765655518 710.2874889373779 253.71877765655518 715.0 265.5000276565552 715.0C276.0070848464966 715.0 286.5431537628174 711.2046356201172 294.8987798690796 703.5594787597656L468.8987798690796 544.0594787597656C477.92502212524414 535.9250221252441 483.0000276565552 524.1437721252441 483.0000276565552 512.0ZM758.5000276565552 657.0H497.5000276565552C473.5750331878662 657.0 454.0000276565552 676.5749778747559 454.0000276565552 700.5C454.0000276565552 724.4250221252441 473.5750331878662 744.0 497.5000276565552 744.0H758.5000276565552C782.5156526565552 744.0 802.0000276565552 724.515625 802.0000276565552 700.5C802.0000276565552 676.484375 782.606255531311 657.0 758.5000276565552 657.0Z"/>
</svg>
