<?xml version="1.0" encoding="UTF-8"?>
<svg xmlns="http://www.w3.org/2000/svg" viewBox="0 0 1024 1024" role="img">
  <path fill="currentColor" d="M975.2264657486794 484.92630120377595Q976.0000000000001 501.9440547328311 976.0000000000001 509.679397246038Q976.0000000000001 604.8241101584829 938.870355936607 690.6864120550792Q902.5142461245346 776.5487139516758 839.8579717675588 839.2049883086518Q777.9752316619035 901.8612626656276 692.1129297653071 938.2173724776999Q606.2506278687105 975.347016541093 511.10591495626574 975.347016541093Q398.1699142634451 975.347016541093 299.9310643457175 924.2937559539275Q200.91868017666928 874.0140296180828 136.71533731705205 785.8311249675241Q71.73846020611414 697.6482203169655 53.1736381744176 588.5798908807483L51.62656967177622 570.7886031003725Q36.92941889668312 443.92898588377943 81.7944054732831 337.1812592015243Q97.2650904996969 300.8251493894519 123.56525504460033 266.0161080800208Q150.63895384082446 231.9806010219105 174.61851563176583 219.60405300077946Q132.07413180912792 302.3722178920932 125.8858577985624 376.63150601887946Q159.14783060535206 269.11024508530363 243.46306399930722 207.22750497964842Q289.1015848272279 173.96553217285884 344.7960509223175 159.26838139776572Q400.4905170174071 144.5712306226726 446.9025720966485 150.75950463323812Q493.3146271758899 156.94777864380364 519.6147917207934 178.60673768078289Q490.9940244219278 188.6626829479519 462.3732571230623 209.54810773361055Q434.52602407551746 230.43353251926908 409.7729280332554 261.3749025720967Q385.01983199099334 292.3162726249243 368.0020784619382 327.898848185676Q350.984324932883 364.2549579977484 344.02251667099677 408.3464103230277Q337.0607084091106 452.43786264830703 343.2489824196761 497.302849224907Q349.43725643024163 535.9795617909415 366.4550099592968 570.7886031003725Q351.7578591842037 537.5266302935828 353.3049276868451 491.8881094656621Q354.85199618948644 446.24958863774145 374.9638867238244 415.3082185849139Q396.62284576080367 382.8197800294449 426.0171473109899 370.4432320083139Q455.4114488611761 357.29314973586213 477.0704078981554 362.707889495107Q472.42920239023124 361.9343552437863 465.46739412834506 371.9903005109553Q457.7320516151382 382.8197800294449 451.54377760457265 392.8757252966139Q445.35550359400713 402.93167056378286 443.03490084004505 409.1199445743483Q431.4318870702347 435.42010911925183 431.4318870702347 464.814410669438V467.1350134234001Q432.2054213215554 531.3383562830172 479.3910106521175 576.976877110938Q511.8794492075864 608.6917814150863 554.4238330302244 620.2947951848967Q596.9682168528623 631.897808954707 637.9655321728587 624.1624664415001Q678.9628474928553 616.4271239282932 716.0924915562484 591.6740278860311Q753.2221356196416 567.6944660950896 777.2016974105829 530.5648220316966Q799.6341906988829 495.75578072226557 807.3695332120898 450.1172598943449Q815.8784099766174 403.70520481510357 806.5959989607691 351.10487572529667Q797.3135879449208 299.27808088681047 770.2398891486966 254.41309431021045Q748.5809301117174 220.37758725210017 719.1866285615312 193.30388845587606Q652.6626829479519 129.87407984757954 562.9327097947519 103.57391530267608Q473.20273664155195 77.27375075777263 382.69922923703126 94.29150428682783H381.1521607343899Q379.60509223174853 95.06503853814843 375.7374209751451 95.83857278946914Q372.6432839698623 96.61210704078985 371.09621546722093 96.61210704078985Q370.3226812159003 96.61210704078985 369.54914696457956 96.61210704078985H368.77561271325885L357.94613319476923 99.70624404607258Q302.2516670996796 114.40339482116565 265.8955572876072 136.062353858145H265.1220230362865H264.3484887849658L265.8955572876072 135.2888196068243Q266.6690915389279 134.51528535550358 267.44262579024854 133.74175110418298Q268.98969429288996 132.96821685286227 270.53676279553133 131.42114835022085Q329.3253658959037 78.82081926041394 425.2436130596692 58.70892872607601Q467.01446263098643 49.42651771022781 510.332380704945 48.6529834589071H529.6707369879623Q564.4797782973933 49.42651771022781 601.6094223607864 56.38832597211399Q602.382956612107 56.38832597211399 603.9300251147484 57.1618602234347Q605.4770936173899 57.93539447475541 607.0241621200312 57.1618602234347Q607.7976963713519 57.1618602234347 611.6653676279553 57.935394474755356Q615.5330388845588 58.70892872607601 617.0801073872002 59.48246297739672Q669.6804364770071 71.08547674720705 720.7336970641726 96.61210704078985Q731.5631765826622 102.80038105135532 734.6573135879449 103.57391530267603Q760.1839438815277 116.72399757512778 780.2958344158657 131.42114835022085Q788.0311769290726 137.60942236078643 803.5018619554863 149.98597038191747Q823.6137524898243 166.23018965965184 838.3109032649173 180.92734043474502Q859.9698623018967 201.81276522040366 881.6288213388759 231.2070667705898Q884.7229583441588 235.84827227851395 887.0435610981208 238.16887503247597L887.8170953494415 238.94240928379668Q888.5906296007622 239.7159435351174 889.3641638520828 240.4894777864381L892.4583008573657 245.13068329436226Q893.2318351086863 245.90421754568285 893.2318351086863 246.67775179700357Q894.005369360007 247.45128604832428 894.7789036113277 248.224820299645Q895.5524378626484 248.9983545509657 895.5524378626484 250.545423053607Q896.3259721139691 252.09249155624843 897.0995063652897 252.09249155624843Q897.8730406166104 252.86602580756914 899.4201091192518 255.18662856153117L902.5142461245346 259.8278340694553Q903.2877803758553 260.60136832077603 904.8348488784966 262.92197107473805Q905.6083831298173 263.69550532605876 905.6083831298173 264.4690395773795Q905.6083831298173 265.2425738287002 906.381917381138 266.01610808002084Q907.1554516324587 266.7896423313415 906.381917381138 266.7896423313415Q906.381917381138 267.5631765826622 907.9289858837794 269.11024508530363Q908.7025201351001 270.65731358794494 909.4760543864207 270.65731358794494Q910.2495886377415 271.43084783926565 910.2495886377415 272.9779163419071Q911.0231228890622 274.5249848445484 911.7966571403829 274.5249848445484L912.5701913917036 276.0720533471898Q913.3437256430242 277.6191218498311 913.3437256430242 278.39265610115183Q914.1172598943449 279.16619035247254 915.6643283969863 282.2603273577553Q916.437862648307 283.033861609076 917.2113968996276 284.5809301117174Q917.9849311509483 285.3544643630381 917.9849311509483 286.1279986143587Q918.758465402269 286.9015328656794 919.5319996535898 287.67506711700014L920.3055339049105 289.22213561964156Q920.3055339049105 289.99566987096216 920.3055339049105 290.7692041222829Q921.0790681562311 291.5427383736036 921.8526024075518 292.3162726249243Q922.6261366588725 293.089806876245 921.8526024075518 293.8633411275656Q922.6261366588725 294.6368753788863 923.3996709101932 295.410409630207Q924.1732051615139 296.18394388152774 924.1732051615139 296.95747813284845Q924.9467394128345 297.73101238416905 925.7202736641552 299.27808088681047Q926.4938079154759 300.8251493894519 926.4938079154759 301.5986836407725Q927.2673421667967 302.3722178920932 927.2673421667967 303.1457521434139Q928.0408764181174 303.9192863947346 928.0408764181174 304.69282064605534Q928.814410669438 305.46635489737594 928.814410669438 307.01342340001736Q929.5879449207587 308.5604919026588 930.3614791720794 310.1075604053001L931.1350134234001 310.8810946566208Q937.3232874339656 324.80471118039327 940.4174244392484 331.76651944227945L941.190958690569 332.54005369360016Q941.9644929418897 333.31358794492076 941.9644929418897 336.4077249502036Q942.7380271932104 338.7283277041656 943.5115614445311 339.50186195548633V340.27539620680705Q943.5115614445311 341.04893045812776 944.2850956958519 341.04893045812776Q945.0586299471724 341.82246470944835 945.0586299471724 344.1430674634105Q945.8321641984932 345.6901359660518 946.6056984498139 347.2372044686932Q946.6056984498139 348.01073872001393 947.3792327011346 348.7842729713346Q948.1527669524553 349.55780722265524 948.1527669524553 352.6519442279381Q948.9263012037759 354.9725469819001 949.6998354550966 355.7460812332208V357.29314973586213Q952.0204382090587 361.9343552437863 952.7939724603793 364.2549579977484Q952.7939724603793 365.02849224906913 952.7939724603793 365.8020265003898Q952.7939724603793 366.57556075171044 953.5675067117 368.8961635056725Q954.3410409630208 371.2167662596346 955.1145752143415 371.9903005109553V373.5373690135966Q955.1145752143415 374.31090326491733 955.8881094656622 377.40504027020006Q956.6616437169828 379.7256430241622 957.4351779683035 381.2727115268035L958.2087122196242 382.0462457781242L959.7557807222656 389.7815882913311Q970.5852602407552 433.0995063652897 973.679397246038 467.1350134234001L974.4529314973587 475.64389018792764Q974.4529314973587 476.41742443924835 974.4529314973587 480.2850956958518Q975.2264657486794 483.3792327011346 975.2264657486794 484.92630120377595Z"/>
</svg>
