<?xml version="1.0" encoding="UTF-8"?>
<svg xmlns="http://www.w3.org/2000/svg" viewBox="0 0 1024 1024" role="img">
  <path fill="currentColor" d="M391.46237970954155 622.0990504859654 329.6482154580244 597.3733847853587Q368.28206811522267 583.4651978287673 405.37056666613296 598.1460618385026Q444.00441932333115 614.3722799545258 461.00331449249836 653.0061326117241Q476.4568555553777 692.4126623220662 460.2306374393544 731.0465149792644Q444.00441932333115 769.6803676364626 405.37056666613296 786.6792628056298Q366.7367140089347 802.9054809216532 326.55750724544856 785.9065857524859Q291.01436280082623 771.2257217427506 274.015467631659 735.6825772981282L334.28427777688825 760.4082429987351Q362.10065169007095 771.9983987958946 390.6897026563976 760.4082429987351Q419.2787536227243 748.8180872015756 431.6415864730277 720.2290362352489Q444.00441932333115 691.6399852689223 431.6415864730277 663.0509343025956Q419.2787536227243 633.6892062831249 391.46237970954155 622.0990504859654ZM975.6062318863785 181.67313019390588V843.0846876851392Q975.6062318863785 897.9447584583608 936.9723792291803 937.3512881687029Q898.3385265719821 976.7578178790451 842.7057787456167 975.9851408259011H181.2942212543833Q125.66147342801786 975.9851408259011 87.02762077081965 937.3512881687029Q48.393768113621434 897.9447584583608 48.393768113621434 843.0846876851392V642.9613309208526L232.29090676188494 719.456359182105Q241.5630313996125 765.8169823707428 280.19688405681075 797.4967415496453Q317.28538260772103 828.4038236754039 366.7367140089347 828.4038236754039Q423.9148159415881 828.4038236754039 464.0940227050742 786.6792628056298Q504.2732294685604 744.9547019358558 502.7278753622724 686.2312458969145L666.5354106287928 569.5570108721759Q742.2577618369014 571.1023649784638 797.1178326101228 517.7876483115303Q851.9779033833443 464.47293164459677 851.9779033833443 388.75058043648824Q851.9779033833443 313.8009062815237 798.6631867164108 260.48618961459016Q745.3484700494773 207.17147294765664 670.3987958945128 207.17147294765664Q595.4491217395482 207.17147294765664 542.9070821257585 260.4861896145902Q488.81968840568106 313.8009062815237 488.81968840568106 388.75058043648824V391.0686115959202L374.46348454037434 557.1941780218724Q326.55750724544856 554.1034698092966 289.4690086945383 579.6018125630474L48.393768113621434 480.69914976062V181.67313019390588Q48.393768113621434 126.81305942068434 87.02762077081965 87.40652971034217Q125.66147342801786 48.0 181.2942212543833 48.0H842.7057787456167Q898.3385265719821 48.0 936.9723792291803 87.40652971034217Q975.6062318863785 126.81305942068434 975.6062318863785 181.67313019390588ZM790.1637391318272 388.75058043648824Q790.1637391318272 438.9745888908459 756.1659487934928 473.7450562823243Q720.6228043488704 509.2882007269467 670.3987958945128 509.2882007269467Q620.1747874401551 509.2882007269467 584.6316429955327 473.7450562823243Q549.0884985509103 438.9745888908459 549.0884985509103 388.75058043648824Q549.0884985509103 338.5265719821306 584.6316429955327 302.9834275375082Q620.1747874401551 267.4402830928858 670.3987958945128 267.4402830928858Q720.6228043488704 267.4402830928858 756.1659487934927 302.9834275375082Q791.709093238115 338.5265719821306 790.1637391318272 388.75058043648824ZM669.6261188413687 479.1537956543321Q708.259971498567 479.1537956543321 734.5309913054616 452.8827758474373Q760.8020111123565 425.8390789873986 760.8020111123565 387.9779033833443Q760.8020111123565 350.11672777929004 734.5309913054617 323.84570797239525Q708.259971498567 297.57468816550045 670.3987958945127 297.57468816550045Q632.5376202904583 297.57468816550045 606.2666004835636 323.84570797239525Q579.9955806766689 350.11672777929004 579.9955806766689 387.9779033833443Q579.9955806766689 425.8390789873986 606.2666004835636 452.8827758474373Q632.5376202904583 479.926472707476 669.6261188413687 479.1537956543321Z"/>
</svg>
