<?xml version="1.0" encoding="UTF-8"?>
<svg xmlns="http://www.w3.org/2000/svg" viewBox="0 0 1024 1024" role="img">
  <path fill="currentColor" d="M826.106255531311 217.2514247894287 690.8393716812134 81.96639823913574C668.9625387191772 60.220048904418945 639.418755531311 48.000165939331055 608.7875165939331 48.000165939331055L280.0000276565552 48.0C215.9281415939331 48.0 164.0 99.92811393737793 164.0 164.0L164.01178169250488 860.0C164.01178169250488 924.0537433624268 215.9398956298828 976.0 280.0117816925049 976.0H744.0C807.8000221252441 976.0 860.0 923.8000221252441 860.0 860.0V299.2126770019531C860.0 268.5814380645752 847.8562278747559 239.03765487670898 826.1062278747559 217.2514247894287ZM773.0 860.000165939331C773.0 876.0154132843018 760.0152473449707 889.000165939331 744.0 889.000165939331H280.0362300872803C264.01735973358154 889.000165939331 251.03623008728027 876.0154132843018 251.03623008728027 860.000165939331L250.99997234344482 164.2357997894287C250.99997234344482 148.220552444458 263.9847249984741 135.2357997894287 279.9999723434448 135.2357997894287H569.9999723434448V280.00016593933105C569.9999723434448 312.02700996398926 595.9731006622314 338.00016593933105 627.9999723434448 338.00016593933105H771.3687334060669V860.000165939331ZM772.9999723434448 860.000165939331ZM337.9999723434448 555.500165939331C337.9999723434448 579.6063938140869 357.57497787475586 599.000165939331 381.4999723434448 599.000165939331H642.4999723434448C666.6062002182007 599.000165939331 685.9999723434448 579.6063938140869 685.9999723434448 555.500165939331C685.9999723434448 531.3939380645752 666.6062002182007 512.000165939331 642.4999723434448 512.000165939331H381.4999723434448C357.57497787475586 512.000165939331 337.9999723434448 531.5751438140869 337.9999723434448 555.500165939331ZM642.4999723434448 686.000165939331H381.4999723434448C357.57497787475586 686.000165939331 337.9999723434448 705.5751438140869 337.9999723434448 729.500165939331C337.9999723434448 753.4251880645752 357.4843473434448 773.000165939331 381.4999723434448 773.000165939331H642.4999723434448C666.5155973434448 773.000165939331 685.9999723434448 753.515790939331 685.9999723434448 729.500165939331C685.9999723434448 705.484540939331 666.6062002182007 686.000165939331 642.4999723434448 686.000165939331Z"/>
</svg>
