<?xml version="1.0" encoding="UTF-8"?>
<svg xmlns="http://www.w3.org/2000/svg" viewBox="0 0 1024 1024" role="img">
  <path fill="currentColor" d="M324.00167388057565 265.06593287764963C275.8676699770535 265.06593287764963 236.84844601448987 304.0851291349571 236.84844601448987 352.21913303847924C236.84844601448987 400.3531092367452 275.8676699770535 439.3723331993088 324.00167388057565 439.3723331993088C372.13567778409777 439.3723331993088 411.1548740414052 400.3531092367452 411.1548740414052 352.21913303847924C411.1548740414052 304.0851291349571 372.11750313603363 265.06593287764963 324.00167388057565 265.06593287764963ZM859.8122967847783 105.2850659161287H162.58669549814164C100.0360953018413 105.2850659161287 48.0 157.3046211800214 48.0 221.48933279723485V802.5106672027654C48.0 866.6953788199788 100.01955526389267 918.7149340838715 162.57012775493683 918.7149340838715H859.7957290415735C923.980440658787 918.7149340838715 975.9999959226797 866.6953788199788 975.9999959226797 802.5106672027654V221.48933279723485C976.0165636658844 157.3046211800214 925.5403019930965 105.2850659161287 859.8122967847783 105.2850659161287ZM888.8633635050548 790.3455108494446 640.4767098003831 452.80844047533424C635.9374806253398 444.45627541640846 625.5880713525488 439.3723331993088 614.5123410833409 439.3723331993088C603.4130059358546 439.3723331993088 593.0508522452136 444.3981774941668 586.8956862973215 452.77031804280944L393.34294319137666 714.4114987744024L325.99894579969714 630.7081017045032C319.75116118034396 622.9387721201585 309.7775460025864 618.3450744114353 299.1811720760701 618.3450744114353C288.5739099838691 618.3450744114353 278.60938213014356 622.9369435732497 272.3452514096352 630.7081017045032L135.22420873245824 801.0381328359834C135.22420873245824 800.9849387440885 135.22420873245824 801.0913269278785 135.22420873245824 801.0381328359834L135.15156555071405 221.48933279723485C135.15156555071405 205.47131728585407 148.18461675960978 192.43826607695837 164.20265997624676 192.43826607695837H861.4282612628834C877.4462767742642 192.43826607695837 890.4793279831599 205.47131728585407 890.4793279831599 221.48933279723485V790.3455108494446ZM888.8633912103111 790.3455108494446Z"/>
</svg>
