<?xml version="1.0" encoding="UTF-8"?>
<svg xmlns="http://www.w3.org/2000/svg" viewBox="0 0 1024 1024" role="img">
  <path fill="currentColor" d="M860.0 106.0H164.0C99.92811393737793 106.0 48.0 157.92811393737793 48.0 222.0V802.0C48.0 866.0718860626221 99.92811393737793 918.0 164.0 918.0H860.0C924.0718860626221 918.0 976.0 866.0718860626221 976.0 802.0V222.0C976.0 157.92811393737793 923.9812278747559 106.0 860.0 106.0ZM251.0 831.0H164.0C148.0101137161255 831.0 134.99997234344482 817.9898586273193 134.99997234344482 802.0V671.5H250.99997234344482V831.0ZM250.99997234344482 584.5H134.99997234344482V439.5H250.99997234344482V584.5ZM250.99997234344482 352.5H134.99997234344482V222.0C134.99997234344482 206.01014137268066 148.0101137161255 193.0 164.0 193.0H251.0V352.5ZM686.0 831.0H338.0V555.5H686.0V831.0ZM686.0 468.5H338.0V193.0H686.0V468.5ZM889.0 802.0C889.0 817.9898586273193 875.9898586273193 831.0 860.0 831.0H773.0V671.5H889.0V802.0ZM889.0 584.5H773.0V439.5H889.0V584.5ZM889.0 352.5H773.0V193.0H860.0C875.9898586273193 193.0 889.0 206.01014137268066 889.0 222.0V352.5Z"/>
</svg>
