<?xml version="1.0" encoding="UTF-8"?>
<svg xmlns="http://www.w3.org/2000/svg" viewBox="0 0 1024 1024" role="img">
  <path fill="currentColor" d="M512.0 976.0000000000002Q492.11428571428576 976.0000000000002 472.22857142857146 970.4761904761907Q452.34285714285716 964.9523809523812 436.87619047619046 950.5904761904764Q421.40952380952376 936.2285714285715 414.78095238095233 916.3428571428573Q408.1523809523809 896.457142857143 408.1523809523809 876.5714285714287Q408.1523809523809 847.8476190476192 416.99047619047616 821.3333333333335Q425.8285714285714 794.8190476190478 436.87619047619046 770.5142857142858Q447.9238095238095 746.209523809524 456.76190476190476 720.8000000000002Q465.6 695.3904761904763 465.6 666.6666666666669V615.8476190476192Q458.97142857142853 613.6380952380954 453.447619047619 611.4285714285716Q447.9238095238095 609.2190476190477 443.50476190476184 604.8000000000002L401.5238095238095 629.1047619047621Q381.63809523809516 642.3619047619048 363.9619047619047 657.8285714285715Q346.2857142857142 673.2952380952382 334.13333333333327 692.0761904761906Q321.9809523809523 710.857142857143 307.6190476190476 729.6380952380954Q293.25714285714287 748.4190476190478 275.58095238095234 762.7809523809526Q257.9047619047618 777.1428571428573 236.91428571428565 788.1904761904764Q215.92380952380947 799.2380952380954 193.8285714285714 799.2380952380954Q173.9428571428571 799.2380952380954 155.1619047619047 789.2952380952382Q136.38095238095232 779.352380952381 123.12380952380947 762.7809523809525Q109.86666666666662 746.209523809524 101.02857142857138 727.4285714285716Q92.19047619047615 708.6476190476192 92.19047619047615 686.5523809523811Q92.19047619047615 660.0380952380954 108.76190476190472 637.9428571428573Q125.33333333333329 615.8476190476192 148.5333333333333 602.5904761904764Q171.7333333333333 589.3333333333335 198.24761904761903 583.809523809524Q224.76190476190473 578.2857142857144 251.27619047619044 576.0761904761906Q277.79047619047617 573.8666666666668 304.3047619047619 568.3428571428573Q330.81904761904764 562.8190476190478 355.12380952380954 549.5619047619049L401.5238095238095 523.0476190476192V500.9523809523811L355.12380952380954 474.43809523809534Q330.81904761904764 461.1809523809525 304.3047619047619 455.65714285714296Q277.79047619047617 450.13333333333344 251.27619047619044 447.9238095238096Q224.76190476190473 445.7142857142858 198.24761904761903 440.19047619047626Q171.7333333333333 434.66666666666674 148.5333333333333 421.40952380952393Q125.33333333333329 408.1523809523811 108.76190476190472 386.057142857143Q92.19047619047615 363.96190476190486 92.19047619047615 337.4476190476191Q92.19047619047615 315.35238095238105 101.02857142857138 296.57142857142867Q109.86666666666662 277.7904761904763 123.12380952380947 261.2190476190477Q136.38095238095232 244.64761904761917 155.1619047619047 234.704761904762Q173.9428571428571 224.76190476190482 193.8285714285714 224.76190476190482Q215.92380952380947 224.76190476190482 236.91428571428565 235.8095238095239Q257.9047619047618 246.857142857143 275.58095238095234 261.2190476190477Q293.25714285714287 275.58095238095245 307.6190476190476 294.36190476190484Q321.9809523809523 313.1428571428572 334.13333333333327 331.9238095238096Q346.2857142857142 350.704761904762 363.9619047619047 366.1714285714287Q381.63809523809516 381.6380952380954 401.5238095238095 394.89523809523826L443.50476190476184 419.20000000000016Q447.9238095238095 414.7809523809525 453.447619047619 412.57142857142867Q458.97142857142853 410.36190476190484 465.6 408.1523809523811V357.3333333333335Q465.6 328.6095238095239 456.76190476190476 303.2000000000001Q447.9238095238095 277.7904761904763 436.87619047619046 253.48571428571438Q425.8285714285714 229.18095238095248 416.99047619047616 202.66666666666674Q408.1523809523809 176.152380952381 408.1523809523809 147.42857142857156Q408.1523809523809 127.5428571428572 414.78095238095233 107.65714285714296Q421.40952380952376 87.77142857142871 436.87619047619046 73.40952380952388Q452.34285714285716 59.04761904761904 472.22857142857146 53.52380952380952Q492.11428571428576 48.0 512.0 48.0Q531.8857142857142 48.0 551.7714285714285 53.52380952380952Q571.6571428571428 59.04761904761904 587.1238095238095 73.40952380952388Q602.5904761904762 87.77142857142871 609.2190476190476 107.65714285714296Q615.8476190476191 127.5428571428572 615.8476190476191 147.42857142857156Q615.8476190476191 176.152380952381 607.0095238095239 202.66666666666674Q598.1714285714286 229.18095238095248 587.1238095238095 253.48571428571438Q576.0761904761905 277.7904761904763 567.2380952380952 303.2000000000001Q558.4 328.6095238095239 558.4 357.3333333333335V408.1523809523811Q565.0285714285715 410.36190476190484 570.552380952381 412.57142857142867Q576.0761904761905 414.7809523809525 580.4952380952382 419.20000000000016L622.4761904761905 394.89523809523826Q642.3619047619047 381.6380952380954 660.0380952380953 366.1714285714287Q677.7142857142858 350.704761904762 689.8666666666668 331.9238095238096Q702.0190476190477 313.1428571428572 716.3809523809524 294.36190476190484Q730.7428571428571 275.58095238095245 748.4190476190477 261.2190476190477Q766.0952380952381 246.857142857143 787.0857142857143 235.8095238095239Q808.0761904761905 224.76190476190482 830.1714285714286 224.76190476190482Q850.0571428571429 224.76190476190482 868.8380952380953 234.704761904762Q887.6190476190477 244.64761904761917 900.8761904761905 261.2190476190477Q914.1333333333333 277.7904761904763 922.9714285714285 296.57142857142867Q931.8095238095239 315.35238095238105 931.8095238095239 337.4476190476191Q931.8095238095239 363.96190476190486 915.2380952380953 386.057142857143Q898.6666666666667 408.1523809523811 875.4666666666667 421.40952380952393Q852.2666666666667 434.66666666666674 825.7523809523809 440.19047619047626Q799.2380952380953 445.7142857142858 772.7238095238096 447.9238095238096Q746.2095238095238 450.13333333333344 719.6952380952381 455.65714285714296Q693.1809523809524 461.1809523809525 668.8761904761905 474.43809523809534L622.4761904761905 500.9523809523811V523.0476190476192L668.8761904761905 549.5619047619049Q693.1809523809524 562.8190476190478 719.6952380952381 568.3428571428573Q746.2095238095238 573.8666666666668 772.7238095238096 576.0761904761906Q799.2380952380953 578.2857142857144 825.7523809523809 583.809523809524Q852.2666666666667 589.3333333333335 875.4666666666667 602.5904761904764Q898.6666666666667 615.8476190476192 915.2380952380953 637.9428571428573Q931.8095238095239 660.0380952380954 931.8095238095239 686.5523809523811Q931.8095238095239 708.6476190476192 922.9714285714285 727.4285714285716Q914.1333333333333 746.209523809524 900.8761904761905 762.7809523809525Q887.6190476190477 779.352380952381 868.8380952380953 789.2952380952382Q850.0571428571429 799.2380952380954 830.1714285714286 799.2380952380954Q808.0761904761905 799.2380952380954 787.0857142857143 788.1904761904764Q766.0952380952381 777.1428571428573 748.4190476190477 762.7809523809526Q730.7428571428571 748.4190476190478 716.3809523809524 729.6380952380954Q702.0190476190477 710.857142857143 689.8666666666668 692.0761904761906Q677.7142857142858 673.2952380952382 660.0380952380953 657.8285714285715Q642.3619047619047 642.3619047619048 622.4761904761905 629.1047619047621L580.4952380952382 604.8000000000002Q576.0761904761905 609.2190476190477 570.552380952381 611.4285714285716Q565.0285714285715 613.6380952380954 558.4 615.8476190476192V666.6666666666669Q558.4 695.3904761904763 567.2380952380952 720.8000000000002Q576.0761904761905 746.209523809524 587.1238095238095 770.5142857142858Q598.1714285714286 794.8190476190478 607.0095238095239 821.3333333333335Q615.8476190476191 847.8476190476192 615.8476190476191 876.5714285714287Q615.8476190476191 896.457142857143 609.2190476190476 916.3428571428573Q602.5904761904762 936.2285714285715 587.1238095238095 950.5904761904764Q571.6571428571428 964.9523809523812 551.7714285714285 970.4761904761907Q531.8857142857142 976.0000000000002 512.0 976.0000000000002Z"/>
</svg>
