<?xml version="1.0" encoding="UTF-8"?>
<svg xmlns="http://www.w3.org/2000/svg" viewBox="0 0 1024 1024" role="img">
  <path fill="currentColor" d="M967.7945896487772 260.32647409528465C963.9887684389689 238.34338091245866 945.376564432848 220.90915470047128 923.393471250022 214.78360380291508C901.4285186708148 208.89365952552907 877.8687415612711 215.01014012127598 863.4066430866866 231.0942187249068L755.5753555468524 337.3488223380233L696.6759127729933 327.56246444617193L686.9348510834706 268.8804876888646L793.4069207131388 162.40841805919638C809.2644629984085 146.32433945556568 815.6074799125164 122.7554920442127 809.4909993167695 101.008005481557C803.3745187210226 79.02491229873101 785.7137561906743 62.04375872346566 763.7306630078483 56.371280462631375C667.4617980062343 32.5758967329175 569.6343343748031 60.222397874768376 498.0488577727283 130.22212024831617C429.87049624787784 198.41862237678538 402.6861380445583 295.82923927201375 424.19801798704356 389.92333349467486L89.92105979758861 720.6482730048289C63.461606751680584 750.3698269124478 48.057137103132845 787.7030232396837 48.057137103132845 825.761124724331C48.057137103132845 863.8192262089784 63.461606751680584 902.7834729670698 89.92105979758861 930.8739764438333C116.38051284349663 958.9644799205968 157.0120635863218 976.0 195.03391151709081 976.0C234.68683753207452 976.0 272.05628741318867 960.5955303514523 300.1468185433114 932.5050268746888L632.5208937812213 600.3121917528114C726.3069295826737 621.8422122989153 823.8987865939346 594.6487837937864 892.5845872596449 526.0082793304045C963.0826784722432 457.1412108953026 991.3544220650392 355.2904876908706 967.7946449554956 260.32647409528465ZM832.5977590963095 464.7528256615602C780.9474785100023 516.4031062478673 705.2843481774296 533.8554730634735 636.6891399163762 510.51316197048146L611.099606243393 501.9047818727636L241.9360273729856 870.8871482804979C218.829322900164 894.2294593734898 178.05278559518467 894.2294593734898 156.57713155321858 870.8871482804979C144.79904046679314 859.333796044087 138.45602355268522 843.9202560937299 138.45602355268522 827.3921751551866C138.45602355268522 811.0815602331949 144.79904046679314 795.4414839644767 156.57713155321858 783.8972020298753L526.1031630023318 414.5523830434353L517.7213192229749 388.94473642019256C490.9809633545681 318.5010117117321 506.7479132351807 242.92847378381646 559.4855792109643 191.7131252306126C596.4019288019973 155.01424165613116 644.8807009312504 135.07904564036357 693.7763197967065 135.07904564036357H695.8151466619555L593.7378594858033 239.12265257400804L621.1396837056744 403.1349470673693L785.1519781990356 430.55491189085916L889.1230780249235 326.8012780815229C889.8661237859537 376.31306909611465 869.9309277701861 427.2384168716511 832.5977314429502 464.7528256615602ZM205.90768245177782 785.8907326927957C189.8236038481471 785.8907326927957 178.5420841324258 798.8033028393725 178.5420841324258 814.8873814430033C178.5420841324258 830.971460046634 191.4546542790026 843.8840301932107 205.90768245177782 843.8840301932107C220.36071062455304 843.8840301932107 233.27328077112983 830.971460046634 233.27328077112983 814.8873814430033C234.9043588553445 800.3890570678994 223.61379649117302 785.8907326927957 205.907710105137 785.8907326927957Z"/>
</svg>
