<?xml version="1.0" encoding="UTF-8"?>
<svg xmlns="http://www.w3.org/2000/svg" viewBox="0 0 1024 1024" role="img">
  <path fill="currentColor" d="M869.4250253014259 807.8000133097167C935.9437401311475 727.5062325147917 976.0 624.5562577081841 976.0 511.99999999999994C976.0 399.44374229181574 935.9618828308021 296.4937674852082 869.3887399021166 216.19998669028314L890.7581297529301 194.8306521525784C907.7503167465235 177.83846515898506 907.7503167465235 150.3156579042775 890.7581297529301 133.31439956085683C873.7659427593368 116.31314121743605 846.2431355046292 116.32221256726336 829.2418771612084 133.31439956085683L807.8724873103951 154.6837894116702C727.5062463430689 88.03813099747504 624.5562715364614 48.00001382827713 512.0000138282771 48.00001382827713C399.443756120093 48.00001382827713 296.49378131348544 88.03813099747504 216.12751268960497 154.6112739261605L194.7581228387915 133.241884075347C177.76593584519816 116.24969708175365 150.24312859049056 116.24969708175365 133.24187024706987 133.241884075347C116.24061190364921 150.23407106894035 116.24968325347652 177.75687832364792 133.24187024706987 194.75813666706858L154.61126009788333 216.12752651788207C88.03811716919788 296.4937674852082 48.0 399.44374229181574 48.0 511.99999999999994C48.0 624.5562577081841 88.03811716919788 727.5062325147917 154.61123244132898 807.8000133097167L133.24184259051555 829.1694031605301C116.24965559692217 846.1615901541235 116.24965559692217 873.6843974088312 133.24184259051555 890.6856557522518C141.74247176222588 899.3312605818729 152.8712203243011 903.499988332391 163.99996888637634 903.499988332391C175.1287174484516 903.499988332391 186.25746601052683 899.251499079123 194.75809518223716 890.7562905920656L216.12748503305062 869.3869007412522C296.49375365693106 935.9437263028702 399.4437284635386 975.9999861717228 511.99998617172275 975.9999861717228C624.556243879907 975.9999861717228 727.5062186865146 935.9618690025248 807.7999994814396 869.3887260738394L829.1693893322531 890.7581159246529C837.7062485901639 899.3312605818729 848.9437150673951 903.499988332391 859.9999758005149 903.499988332391C871.0562365336348 903.499988332391 882.2574729246654 899.251499079123 890.7581020963758 890.7562905920656C907.7502890899691 873.7641035984723 907.7502890899691 846.2412963437647 890.7581020963758 829.240038000344L869.4249976448715 807.8000133097167ZM888.9999749362477 511.99999999999994C888.9999749362477 600.2868568811757 858.2780787265873 681.4143721635826 807.2381289232335 744.1812541430814L661.3862560574336 598.3293812772815C676.5749591417623 573.987520277872 685.9999809861189 544.262476913259 685.9999809861189 511.99999999999994C685.9999809861189 479.7375230867408 676.647474627272 449.99439233558195 661.3862560574336 424.13001036256514L807.2381289232335 278.27810984021096C858.1874758545316 342.5312550505621 888.9999749362477 423.7312581619245 888.9999749362477 511.99999999999994ZM424.9999887645248 511.99999999999994C424.9999887645248 464.02312421729783 464.02311038902076 425.0000025928019 511.99998617172275 425.0000025928019C559.9768619544249 425.0000025928019 598.9999835789208 464.02312421729783 598.9999835789208 511.99999999999994C598.9999835789208 559.976875782702 560.0312347402801 598.999997407198 511.99998617172275 598.999997407198C463.96873760316555 598.999997407198 424.9999887645248 560.0312485685572 424.9999887645248 511.99999999999994ZM511.99998617172275 135.0000112354752C600.2868430528986 135.0000112354752 681.4143583353056 165.72190744513546 744.1812403148043 216.76185724848926L598.3293674490044 362.61378542739783C573.9875064495949 347.42502702996046 544.262463084982 338.00000518560387 511.99998617172275 338.00000518560387C479.73750925846366 338.00000518560387 450.0124935504051 347.42502702996046 424.09373879153316 362.65001551359836L278.18749313987814 216.76185724848926C342.53124122228496 165.72190744513546 423.7312443336474 135.0000112354752 511.99998617172275 135.0000112354752ZM134.999997407198 511.99999999999994C134.999997407198 423.7131431188242 165.72186596030394 342.5856278364173 216.7618710767665 279.81874585691844L362.61374394256643 425.6706187227183C347.42498554512906 450.0125073786822 337.99999135732673 479.73749543018647 337.99999135732673 511.99999999999994C337.99999135732673 544.262476913259 347.3524977161736 574.005607664418 362.61374394256643 599.8700172939891L216.7618710767665 745.7218901597889C165.72186596030394 681.4687449494378 134.999997407198 600.2687694946297 134.999997407198 511.99999999999994ZM511.99998617172275 888.9999887645247C423.71312929054704 888.9999887645247 342.58561400814017 858.2780925548644 279.8187320286413 807.2381427515106L425.6706048944412 661.3862698857107C450.0124935504051 676.5749729700394 479.7374816019094 685.999994814396 511.99998617172275 685.999994814396C544.262463084982 685.999994814396 574.0055938361409 676.6474884555491 599.870003465712 661.3862698857107L745.7218763315119 807.2381427515106C681.4687311211607 858.1874896828087 600.2687556663526 888.9999887645247 511.99998617172275 888.9999887645247Z"/>
</svg>
