<?xml version="1.0" encoding="UTF-8"?>
<svg xmlns="http://www.w3.org/2000/svg" viewBox="0 0 1024 1024" role="img">
  <path fill="currentColor" d="M958.9408207943844 337.0869791847656Q976.7417034437224 348.6962504778121 975.967752024186 370.36689022483233V653.6331097751677Q975.967752024186 674.5297981026514 958.9408207943844 686.139069395698L534.0414914688813 969.4052889460332Q511.59690030232474 982.5624630781526 489.92626055530457 969.4052889460332L65.800882649338 686.139069395698Q48.0 674.5297981026514 48.0 653.6331097751677V370.36689022483233Q48.0 348.6962504778121 65.800882649338 337.0869791847656L489.92626055530457 54.59471105396676Q512.3708517218612 41.43753692184737 534.0414914688813 54.59471105396676ZM551.8423741182194 162.1739583695312V348.6962504778121L725.2074920943809 464.015011988741L864.5187476109393 370.36689022483233ZM472.12537790596656 162.1739583695312 160.2229558327831 370.36689022483233Q159.44900441324668 370.36689022483233 298.76025992980504 464.015011988741L472.12537790596656 348.6962504778121ZM127.71699621225284 444.66622650033014V579.3337734996699L228.33068075198943 512.0ZM472.12537790596656 861.8260416304688V675.3037495221879L298.76025992980504 559.984988011259L160.2229558327831 653.6331097751677ZM512.3708517218612 606.422073183445 653.2300100774925 512.0 512.3708517218612 417.57792681655485 371.51169336622996 512.0ZM551.8423741182194 861.8260416304688 864.5187476109393 653.6331097751677 725.2074920943809 559.984988011259 551.8423741182194 675.3037495221879ZM896.2507558119331 579.3337734996699V444.66622650033014L796.4110226917329 512.0Z"/>
</svg>
