<?xml version="1.0" encoding="UTF-8"?>
<svg xmlns="http://www.w3.org/2000/svg" viewBox="0 0 1024 1024" role="img">
  <path fill="currentColor" d="M918.000029385089 48.00001382827713C912.1094045606433 48.00001382827713 906.2187797361976 48.88740203120096 900.5547174049998 50.70062104759745L349.554733826079 224.7187585616481C325.4938081057725 232.51248620413276 309.0000475347028 254.62500767037238 309.0000475347028 280.00000691413857V706.1187552774322C281.81254834495337 692.7515681758055 252.12379037964968 685.9637647281954 222.0000224709504 685.9637647281954C124.30625878851835 685.999994814396 48.0 750.8874707553543 48.0 830.9999904930594C48.0 911.1125102307643 124.30625878851835 975.9999861717228 220.36875592563283 975.9999861717228C309.8700121083852 975.9999861717228 382.58752874769186 919.59499670282 392.338759650625 847.0768561638338C393.69813461011245 842.0924813123797 394.37419908123616 836.2924593599897 394.37419908123616 831.0815220152878L396.0000172853465 511.99999999999994L889.000002592802 356.3424957888574V590.1549888207021C861.8125034030525 576.7878017190753 832.1237454377488 569.9999982714653 801.9818624859493 569.9999982714653C705.9193653488348 569.9999982714653 629.6131065603165 634.7968713403679 629.6131065603165 713.3687550613654C629.6131065603165 791.9406387823628 705.9193653488348 856.7375118512656 801.9818624859493 856.7375118512656C891.4831186687018 856.7375118512656 964.2187503511086 800.0968885392878 974.1875000540167 727.8143818433766C975.3203125202563 722.8300069919226 975.7734375067521 717.8456321404685 976.0 712.8612572890145V105.98186940008782C976.0 74.02748650230501 950.2624786417937 48.00001382827713 918.0000017285347 48.00001382827713ZM222.0000224709504 888.9999887645247C170.79689899692238 888.9999887645247 135.0000250637524 858.4049808262293 135.0000250637524 830.9999904930594C135.0000250637524 803.5950001598894 170.79689899692238 772.999992221594 222.0000224709504 772.999992221594C273.2031459449784 772.999992221594 309.0000198781484 803.5950001598894 309.0000198781484 830.9999904930594C309.0000198781484 858.4049808262293 273.1125154163684 888.9999887645247 222.0000224709504 888.9999887645247ZM889.000002592802 714.9999939501287C889.000002592802 742.4049842832986 853.2031286596318 772.999992221594 802.0000051856039 772.999992221594C750.7968817115759 772.999992221594 715.0000077784059 742.4049842832986 715.0000077784059 714.9999939501287C715.0000077784059 687.5950036169587 750.7968817115759 656.9999956786633 802.0000051856039 656.9999956786633C853.2031286596318 656.9999956786633 889.000002592802 687.6312337031592 889.000002592802 714.9999939501287ZM889.000002592802 265.1374852318321 396.0000172853465 420.6500137850637V301.3874841514979L889.000002592802 145.73003525346405V265.1374852318321Z"/>
</svg>
