<?xml version="1.0" encoding="UTF-8"?>
<svg xmlns="http://www.w3.org/2000/svg" viewBox="0 0 1024 1024" role="img">
  <path fill="currentColor" d="M835.7849822998047 451.8249999999999C836.0749999999999 448.6350044250487 836.8 445.58999557495105 836.8 442.39999999999986C836.8 352.64500885009755 764.1549911499023 279.9999999999999 674.4 279.9999999999999C657.8554946899413 279.9999999999999 642.224496459961 283.20015106201157 627.1880035400391 287.7966705322264C582.9049911499023 227.0895141601561 511.70998229980466 187.19999999999993 430.8 187.19999999999993C295.6600044250488 187.19999999999993 186.3445053100586 297.2549911499022 187.31600265502928 431.9600044250487C106.34800796508789 460.67000885009753 48.0 537.2299911499022 48.0 627.9999999999999C48.0 743.2749999999999 141.48150177001952 836.7999999999998 256.79999999999995 836.7999999999998H778.8C887.7094787597656 836.7999999999998 976.0 748.5094787597654 976.0 639.5999999999999C976.0 550.7150177001952 916.6949645996093 476.32999114990224 835.7849822998047 451.8249999999999ZM778.8 767.1999999999998H256.79999999999995C180.03699645996093 767.1999999999998 117.6 704.7484893798827 117.6 627.9999999999999C117.6 569.7099822998046 154.96650619506835 517.2780212402342 210.58850708007813 497.54349822998034L257.2640106201172 480.98450088500965C256.8675704956055 424.9855079650878 256.9383491516113 432.91698760986316 256.83916168212886 427.0880035400389C258.8300132751465 332.77999114990223 336.1150177001953 256.79999999999984 430.80002212524414 256.79999999999984C486.48001327514646 256.79999999999984 537.5635292053223 283.04500885009753 570.9570274353027 328.82147521972644L600.1600044250488 368.84152832031236L647.5314796447753 354.3588745117186C718.378458404541 332.69587097167954 769.6649955749511 391.42087097167956 766.3734672546386 447.73890991210925L763.193627166748 502.4329116821288L815.6111183166504 518.3683975219726C869.8600044250488 534.9099822998046 906.4000221252442 583.6299911499023 906.4000221252442 639.5999999999999C906.4000221252442 709.9249999999998 849.1250221252441 767.1999999999998 778.8000221252441 767.1999999999998ZM614.9500221252441 533.7499999999999 546.8000221252441 602.0450088500975V419.1999999999999C546.8000221252441 399.9874999999999 531.212522125244 384.39999999999986 512.0000221252442 384.39999999999986C492.78752212524415 384.39999999999986 477.2000221252441 400.0599822998046 477.2000221252441 419.1999999999999V602.0450088500975L407.74503097534176 533.7499999999999C394.15128097534176 520.1562499999999 372.13303451538087 520.1562499999999 358.5320274353027 533.7499999999999C344.9310203552246 547.3437499999999 344.9382774353027 569.3619964599608 358.5320274353027 582.9630035400389L486.13202743530275 710.563003540039C489.335099029541 713.7660751342772 493.1746696472168 716.3006546020506 497.4231590270996 718.0681961059569C503.0100044250488 719.9299911499022 507.5050132751465 720.7999999999998 512.0000221252442 720.7999999999998C516.4950309753417 720.7999999999998 521.0596015930175 719.8711380004881 525.3139320373534 718.1102340698241C529.5624214172362 716.3426925659178 533.4020362854003 713.8080688476562 536.6050636291504 710.6050415039061L664.2050636291503 583.0050415039061C677.7988136291503 569.4112915039061 677.7988136291503 547.3930450439452 664.2050636291503 533.7920379638671C650.6113136291503 520.1910308837889 628.5800132751465 520.2650177001951 614.9500221252441 533.7499999999999Z"/>
</svg>
