<?xml version="1.0" encoding="UTF-8"?>
<svg xmlns="http://www.w3.org/2000/svg" viewBox="0 0 1024 1024" role="img">
  <path fill="currentColor" d="M872.8888888888889 202.66666666666663H151.11111111111111C94.1583234998915 202.66666666666663 48.0 248.82499016655822 48.0 305.7777777777778V718.2222222222223C48.0 775.1750098334419 94.1583234998915 821.3333333333334 151.11111111111111 821.3333333333334H872.8888888888889C929.8416273328993 821.3333333333334 976.0 775.1750098334419 976.0 718.2222222222223V305.7777777777778C976.0 248.82499016655822 929.7610914442274 202.66666666666663 872.8888888888889 202.66666666666663ZM898.6666666666667 718.2222222222223C898.6666666666667 732.4354298909506 887.1021457248264 744.0 872.8888888888889 744.0H151.11111111111111C136.8978788587782 744.0 125.33330874972873 732.4354298909506 125.33330874972873 718.2222222222223V305.7777777777778C125.33330874972873 291.56457010904955 136.8978788587782 280.0 151.11111111111111 280.0H872.8888888888889C887.1021457248264 280.0 898.6666666666667 291.56457010904955 898.6666666666667 305.7777777777778V718.2222222222223ZM273.55555555555554 344.44444444444446H234.88888888888889C224.16532389322919 344.44444444444446 215.55553097195096 353.0542127821181 215.55553097195096 363.7777777777778V402.44444444444446C215.55553097195096 413.1680094401042 224.16532389322919 421.7777777777778 234.88888888888889 421.7777777777778H273.55555555555554C284.27912055121527 421.7777777777778 292.8888888888889 413.1680094401042 292.8888888888889 402.44444444444446V363.7777777777778C292.8888888888889 352.9833136664497 284.34999508327905 344.44444444444446 273.55555555555554 344.44444444444446ZM363.77777777777777 421.7777777777778H402.44444444444446C413.1680094401042 421.7777777777778 421.77777777777777 413.1680094401042 421.77777777777777 402.44444444444446V363.7777777777778C421.77777777777777 353.0542127821181 413.1680094401042 344.44444444444446 402.44444444444446 344.44444444444446H363.77777777777777C353.05421278211804 344.44444444444446 344.44444444444446 353.0542127821181 344.44444444444446 363.7777777777778V402.44444444444446C344.44444444444446 413.23888397216797 352.98333825005426 421.7777777777778 363.77777777777777 421.7777777777778ZM492.6666666666667 421.7777777777778H531.3333333333334C542.056898328993 421.7777777777778 550.6666666666667 413.1680094401042 550.6666666666667 402.44444444444446V363.7777777777778C550.6666666666667 353.0542127821181 542.056898328993 344.44444444444446 531.3333333333334 344.44444444444446H492.6666666666667C481.94310167100696 344.44444444444446 473.33333333333337 353.0542127821181 473.33333333333337 363.7777777777778V402.44444444444446C473.33333333333337 413.23888397216797 481.87220255533856 421.7777777777778 492.6666666666667 421.7777777777778ZM621.5555555555555 421.7777777777778H660.2222222222223C670.945787217882 421.7777777777778 679.5555555555555 413.1680094401042 679.5555555555555 402.44444444444446V363.7777777777778C679.5555555555555 353.0542127821181 670.945787217882 344.44444444444446 660.2222222222223 344.44444444444446H621.5555555555555C610.8319905598959 344.44444444444446 602.2222222222223 353.0542127821181 602.2222222222223 363.7777777777778V402.44444444444446C602.2222222222223 413.23888397216797 610.7610914442274 421.7777777777778 621.5555555555555 421.7777777777778ZM789.1111111111111 344.44444444444446H750.4444444444445C739.7208794487848 344.44444444444446 731.1111111111111 353.0542127821181 731.1111111111111 363.7777777777778V402.44444444444446C731.1111111111111 413.1680094401042 739.7208794487848 421.7777777777778 750.4444444444445 421.7777777777778H789.1111111111111C799.8346761067709 421.7777777777778 808.4444444444445 413.1680094401042 808.4444444444445 402.44444444444446V363.7777777777778C808.4444444444445 352.9833136664497 799.9055752224392 344.44444444444446 789.1111111111111 344.44444444444446ZM273.55555555555554 473.33333333333337H234.88888888888889C224.16532389322919 473.33333333333337 215.55553097195096 481.94310167100696 215.55553097195096 492.6666666666667V531.3333333333334C215.55553097195096 542.0568983289932 224.16532389322919 550.6666666666667 234.88888888888889 550.6666666666667H273.55555555555554C284.27912055121527 550.6666666666667 292.8888888888889 542.0568983289932 292.8888888888889 531.3333333333334V492.6666666666667C292.8888888888889 481.8722271389432 284.34999508327905 473.33333333333337 273.55555555555554 473.33333333333337ZM363.77777777777777 550.6666666666667H402.44444444444446C413.1680094401042 550.6666666666667 421.77777777777777 542.0568983289932 421.77777777777777 531.3333333333334V492.6666666666667C421.77777777777777 481.94310167100696 413.1680094401042 473.33333333333337 402.44444444444446 473.33333333333337H363.77777777777777C353.05421278211804 473.33333333333337 344.44444444444446 481.94310167100696 344.44444444444446 492.6666666666667V531.3333333333334C344.44444444444446 542.1277974446615 352.98333825005426 550.6666666666667 363.77777777777777 550.6666666666667ZM492.6666666666667 550.6666666666667H531.3333333333334C542.056898328993 550.6666666666667 550.6666666666667 542.0568983289932 550.6666666666667 531.3333333333334V492.6666666666667C550.6666666666667 481.94310167100696 542.056898328993 473.33333333333337 531.3333333333334 473.33333333333337H492.6666666666667C481.94310167100696 473.33333333333337 473.33333333333337 481.94310167100696 473.33333333333337 492.6666666666667V531.3333333333334C473.33333333333337 542.1277974446615 481.87220255533856 550.6666666666667 492.6666666666667 550.6666666666667ZM621.5555555555555 550.6666666666667H660.2222222222223C670.945787217882 550.6666666666667 679.5555555555555 542.0568983289932 679.5555555555555 531.3333333333334V492.6666666666667C679.5555555555555 481.94310167100696 670.945787217882 473.33333333333337 660.2222222222223 473.33333333333337H621.5555555555555C610.8319905598959 473.33333333333337 602.2222222222223 481.94310167100696 602.2222222222223 492.6666666666667V531.3333333333334C602.2222222222223 542.1277974446615 610.7610914442274 550.6666666666667 621.5555555555555 550.6666666666667ZM789.1111111111111 473.33333333333337H750.4444444444445C739.7208794487848 473.33333333333337 731.1111111111111 481.94310167100696 731.1111111111111 492.6666666666667V531.3333333333334C731.1111111111111 542.0568983289932 739.7208794487848 550.6666666666667 750.4444444444445 550.6666666666667H789.1111111111111C799.8346761067709 550.6666666666667 808.4444444444445 542.0568983289932 808.4444444444445 531.3333333333334V492.6666666666667C808.4444444444445 481.8722271389432 799.9055752224392 473.33333333333337 789.1111111111111 473.33333333333337ZM692.4444444444445 615.1111111111111H331.55555555555554C317.2166765001085 615.1111111111111 305.77777777777777 626.5500098334419 305.77777777777777 640.8888888888889V666.6666666666667C305.77777777777777 680.9652777777778 317.25694444444446 692.4444444444445 331.55555555555554 692.4444444444445H692.4444444444445C706.7430555555555 692.4444444444445 718.2222222222223 680.9652777777778 718.2222222222223 666.6666666666667V640.8888888888889C718.2222222222223 626.5500098334419 706.7833234998915 615.1111111111111 692.4444444444445 615.1111111111111Z"/>
</svg>
