<?xml version="1.0" encoding="UTF-8"?>
<svg xmlns="http://www.w3.org/2000/svg" viewBox="0 0 1024 1024" role="img">
  <path fill="currentColor" d="M651.1999999999999 512.2428511972213V232.537860047319C651.1999999999999 182.73035119722124 609.5849822998047 141.04285119722124 558.4 141.04285119722124H140.8C89.6875 141.04285119722124 48.0 182.73035119722124 48.0 232.537860047319V510.9378600473189C48.0 563.427833497026 89.6875 605.0428511972212 140.8 605.0428511972212L187.2 605.0582061166549V680.4428511972212C187.2 690.7378600473189 195.61000442504883 697.8428511972213 204.6 697.8428511972213C208.04375 697.8428511972213 211.66875 696.7553511972212 214.93125 694.3991011972213L372.8 605.0428511972212L558.4 604.934083497026C609.5849822998047 604.8978423471236 651.1999999999999 563.427833497026 651.1999999999999 512.2428511972213ZM354.52999114990234 535.4428511972212 256.79999999999995 590.687860047319V535.4428511972212H140.8C128.1125 535.4428511972212 117.6 525.0028334970259 117.6 512.2428511972213V233.8428511972213C117.6 221.1553511972213 128.1125 210.64285119722126 140.8 210.64285119722126H558.4C571.0875 210.64285119722126 581.6 221.1553511972213 581.6 233.8428511972213V512.2428511972213C581.6 524.9303511972213 571.0875 535.4428511972212 558.4 535.4428511972212H354.52999114990234ZM883.1999999999999 326.64285119722126H697.6V512.2428511972213C697.6 589.0058547372603 635.1630035400391 651.428337037065 558.4 651.428337037065L419.2 651.4302398080611V697.8012557382369C419.2 748.9137557382369 460.8875 789.2962645883346 510.6950088500976 789.2962645883346L693.1050354003906 789.2856887216353L813.0925354003906 879.3596816415572C823.6050354003906 887.5028334970259 836.8 880.8328688974166 836.8 869.2328688974166V790.5848830575728H883.1999999999999C934.3125 790.5848830575728 976.0 748.8973830575728 976.0 699.0898742074752V418.13786004731895C976.0 368.2578688974166 934.3849822998046 326.64285119722126 883.1999999999999 326.64285119722126Z"/>
</svg>
