<?xml version="1.0" encoding="UTF-8"?>
<svg xmlns="http://www.w3.org/2000/svg" viewBox="0 0 1024 1024" role="img">
  <path fill="currentColor" d="M813.6 268.39999999999986V604.7999999999998H883.1999999999999V268.39999999999986C883.1999999999999 223.63850708007806 846.8050354003906 187.19999999999993 802.0 187.19999999999993H604.8V256.79999999999984H802.0C808.3800354003906 256.79999999999984 813.6 262.0054946899413 813.6 268.39999999999986ZM371.34999999999997 429.34999999999985C357.75624999999997 442.94374999999985 357.75624999999997 464.9619964599608 371.34999999999997 478.56300354003895L487.34999999999997 594.563003540039C500.94374999999997 608.156753540039 522.9619964599609 608.156753540039 536.5630035400391 594.563003540039L652.5630035400391 478.56300354003895C666.1567535400391 464.96925354003895 666.1567535400391 442.951007080078 652.5630035400391 429.34999999999985C638.9692535400391 415.74899291992176 616.951007080078 415.75624999999985 603.35 429.34999999999985L546.8 486.04500885009753V221.9999999999999C546.8 202.7874999999999 531.2125 187.19999999999993 513.3049911499023 187.19999999999993C495.39748229980466 187.19999999999993 477.2 202.7874999999999 477.2 221.9999999999999V486.04500885009753L419.34500885009766 429.34999999999985C413.8350044250488 422.5350044250487 404.98999557495114 419.1999999999999 396.0 419.1999999999999C387.0100044250488 419.1999999999999 378.16499557495115 422.5350044250487 371.34999999999997 429.34999999999985ZM941.1999999999999 651.1999999999998H82.8C63.5875 651.1999999999998 48.0 666.8599822998045 48.0 685.9999999999999V709.1999999999998C48.0 779.5249999999999 105.23150177001952 836.7999999999998 175.6 836.7999999999998H848.4C918.7685424804687 836.7999999999998 976.0 779.5684982299804 976.0 709.1999999999998V685.9999999999999C976.0 666.8599822998045 960.4849822998046 651.1999999999998 941.1999999999999 651.1999999999998ZM848.4 767.1999999999998H175.6C147.60050354003906 767.1999999999998 124.15400619506836 747.2335159301756 118.76000442504882 720.7999999999998H905.2400398254395C899.8750221252441 747.1900177001952 876.3850044250488 767.1999999999998 848.4000221252442 767.1999999999998ZM210.40002212524413 268.39999999999986C210.40002212524413 262.01129150390614 215.61133575439453 256.79999999999984 222.0000442504883 256.79999999999984H409.7750442504883V187.19999999999993H222.0000442504883C177.23852920532227 187.19999999999993 140.80002212524414 223.63850708007806 140.80002212524414 268.39999999999986V604.7999999999998H210.40002212524413V268.39999999999986Z"/>
</svg>
