<?xml version="1.0" encoding="UTF-8"?>
<svg xmlns="http://www.w3.org/2000/svg" viewBox="0 0 1024 1024" role="img">
  <path fill="currentColor" d="M852.1779375140175 233.63072414797978H357.2992248882035C288.98277218548367 233.63072414797978 235.31934290699726 289.01459952387665 233.5795172346802 355.61060612918607V850.4893187549999C231.83969156236316 920.46822631576 289.0600545085508 975.9487930867006 357.29919539113365 975.9487930867006H795.7307812604097C812.1352227054203 975.9487930867006 827.8592257426014 969.4322414162256 839.4772956476056 957.8257933567513L957.880893883274 839.422195121083C969.4835073236648 827.8157470616087 976.0 812.0878504112045 976.0 795.6756807338871L975.8975861734011 357.35040230443326C975.8975861734011 289.3045557207279 920.2237546006529 233.63072414797978 852.1779080169476 233.63072414797978ZM883.107827556061 728.5094367737936H790.298718860884C756.1404630124543 728.5094367737936 728.4388797826575 756.2110200035905 728.4388797826575 790.3692758520203L728.4653681514033 882.9270695118795H357.29919539113365C340.218150157377 882.9270695118795 326.3692758520203 869.0781952065228 326.3692758520203 851.9971499727661V357.35040230443326C326.3692758520203 340.2693570706765 340.21428604122366 326.4204827653199 357.29919539113365 326.4204827653199H852.1779080169476C869.2589532507043 326.4204827653199 883.107827556061 340.2693570706765 883.107827556061 357.35040230443326V728.5094367737936ZM48.0 743.9743965433503V280.02560345664983C48.0 152.11108799942235 152.05985158905293 48.05120691329955 279.9743965433503 48.05120691329955H743.9231896300507C769.6336616492829 48.05120691329955 790.3180689387209 68.83224660364135 790.3180689387209 94.44608622196961C790.3180689387209 120.05992584029786 769.6336616492829 140.84096553063966 743.9231896300507 140.84096553063966H279.9743965433503C203.2295395863392 140.84096553063966 140.7897586173401 203.28071700256885 140.7897586173401 280.02560345664983V743.9743965433503C140.7897586173401 769.6848685625823 120.00871892699831 790.3692758520203 94.39487930867006 790.3692758520203C68.7810396903418 790.3692758520203 48.0 769.6848685625823 48.0 743.9743965433503Z"/>
</svg>
