<?xml version="1.0" encoding="UTF-8"?>
<svg xmlns="http://www.w3.org/2000/svg" viewBox="0 0 1024 1024" role="img">
  <path fill="currentColor" d="M944.4467239584478 847.5980051170501C910.7774129916976 841.5829931698812 877.0114014485459 822.5837892298941 849.3539544956535 794.0559387164727C834.7983043566248 779.0473796723044 808.4479383382657 779.0473796723044 793.8939113523505 794.0559387164727C761.3528393588947 827.7735507849657 714.9346444143338 846.9532690257631 666.9047568009294 846.9532690257631C618.874869187525 846.9532690257631 572.5211576893844 827.6445838921251 539.8995182777467 794.007539241814C525.343868138718 778.9989801976457 498.99350212035876 778.9989801976457 484.4394751344436 794.007539241814C451.89840314098774 827.7735507849657 405.48023278965593 846.9532690257631 357.45032058302246 846.9532690257631C305.29435316173357 846.9532690257631 247.7873909760935 825.1625368492104 217.56723118918853 794.007539241814C203.01158105015986 778.9989801976457 176.66121503180068 778.9989801976457 162.10716345265655 794.007539241814C131.2584253259131 825.8555740422402 111.07941041143299 842.0052097252373 79.90832883227503 847.5496056423914C58.875092701943366 851.2888585514411 44.85294347946526 871.4517157144726 48.60830495350547 892.5494598844535C52.33464641733363 913.631021709757 72.23644645460186 927.733762943646 93.46308373773643 923.9622929046152C135.67460686300194 916.432239678546 165.55629003927282 896.9494836700937 191.77933691113395 873.2891250390162C236.9081088595787 905.1048935230033 298.2187828074597 924.5586295212435 357.46640455478405 924.5586295212435C413.70007690252766 924.5586295212435 468.3058988299791 905.9591147388547 512.1291638105462 872.6766552641684C599.6628600370594 939.1610559818173 733.5824848916942 939.2577565582187 821.2612811692676 872.9316378623704C854.4792571975337 899.3158441638243 892.4357582153032 917.1094880185622 930.8597273297763 923.9432577453744C933.1516195261152 924.3494395154269 935.4435117224541 924.5509072473396 937.6838565108231 924.5509072473396C956.0737877957314 924.5509072473396 972.3847058744662 911.3362275123968 975.7048901614709 892.5256044523301C978.1320451172727 871.4517649009306 965.3993434841396 851.3049917096606 944.4466993652188 847.5980051170501ZM260.9069686945193 759.758074003113C269.77154889867813 766.5273602835049 279.1196319848442 769.9120280169299 288.3065802346465 769.9120280169299C298.8087005913208 769.9120280169299 309.2592243535673 765.6554319427783 316.88275644303974 757.295308051729C331.28851085135454 741.5050778172392 330.153828452064 717.0339787991702 314.3652213706877 702.6411358360768L181.12572226386123 581.1770469238211C173.71169989218225 574.4077606434291 176.4516561275492 563.125567656318 186.12210725935876 559.9020839457148L512.1774895055179 449.65892628714806L838.2328471584482 559.7892502110938C847.8968056778035 563.0610842098977 850.6303922668611 574.3803637863307 843.2695404562656 581.064262375658L709.946252218259 702.6057215863266C694.1560219837693 716.9856776974275 693.0229627375923 741.4648432946062 707.4286925526781 757.2598938019787C715.0957792506975 765.7214893558541 725.4109172873362 769.9120280169299 736.0484233696184 769.9120280169299C745.3659124789168 769.9120280169299 754.6801552819882 766.5885974236982 762.1103108118867 759.8128677173099L895.4336482363512 638.2714085066415C919.2068406020499 616.5934608782518 929.4736283504877 584.9550095753061 922.9299603528799 553.6549611033075C916.3072989037457 522.048677743885 893.9186069574512 496.9700030035378 863.0376762939555 486.54203123227813L821.6319257234248 472.5456557137849V292.8364388476567C821.6319257234248 243.08197564432965 781.1771953180631 202.57889495076722 731.3743818265353 202.57889495076722L668.3552654469512 202.61740794737057L666.9047076144714 151.00315558111606C666.9047076144714 122.52365535589524 643.808468470041 99.4274162114649 615.3289682448202 99.4274162114649H409.0260107662156C380.49818484602315 99.4274162114649 357.45027139656446 122.52365535589524 357.45027139656446 151.00315558111606L355.99971356408463 202.6111120807484L292.98059718450054 202.57889495076722C243.17778369297275 202.57889495076722 202.72305328761104 243.08197564432965 202.72305328761104 292.8364388476567V472.5456557137849L161.36575137819705 486.5130112220661C130.50090468646306 497.04412699572345 108.113811300053 522.0261503461272 101.48955129103427 553.6162513608722C94.94266158042831 584.9162998328707 105.21589275486244 616.5547511358163 128.98586340756293 638.2326987642061L260.9069441012903 759.758074003113ZM280.0866623420878 292.8364388476567C280.0866623420878 285.735094789398 285.87925312624174 279.9425040052439 292.98059718450054 279.9425040052439H731.3743818265353C738.4757258847941 279.9425040052439 744.2683166689482 285.735094789398 744.2683166689482 292.8364388476567V446.45155114153545L524.5879214659234 372.2469423512416C523.0422370236977 371.72748416844615 521.49660176793 371.9731213396308 519.9380304737118 371.65508170229003C517.368923400161 371.11373554569064 514.8948937498981 370.682419495607 512.2258397937187 370.6761236289848C509.48428499846716 370.67292650921564 506.93770532267416 371.11373554569064 504.2992945298204 371.677166421926C502.82940641935187 371.9729737802568 501.21766456405027 370.3612319249552 499.76705754511244 372.2952926394423L280.0866623420878 446.43544257654486V292.8364388476567Z"/>
</svg>
