<?xml version="1.0" encoding="UTF-8"?>
<svg xmlns="http://www.w3.org/2000/svg" viewBox="0 0 1024 1024" role="img">
  <path fill="currentColor" d="M560.8421052631579 731.7894736842104C560.8421052631579 745.2759977641857 549.9075767115543 756.2105263157894 536.421052631579 756.2105263157894H487.57894736842104C474.1473870528372 756.2105263157894 463.15789473684214 745.2210339997944 463.15789473684214 731.7894736842104C463.15789473684214 718.3579133686266 474.1473870528372 707.3684210526314 487.57894736842104 707.3684210526314H536.421052631579C549.8526129471628 707.3684210526314 560.8421052631579 718.3579133686266 560.8421052631579 731.7894736842104ZM389.89473684210526 707.3684210526314H316.63157894736844C303.14505486739307 707.3684210526314 292.2105263157895 718.2998753597861 292.2105263157895 731.7894736842104C292.2105263157895 745.2210339997944 303.19999534205385 756.2105263157894 316.63157894736844 756.2105263157894H389.89473684210526C403.32632044741985 756.2105263157894 414.3157894736842 745.2210339997944 414.3157894736842 731.7894736842104C414.3157894736842 718.3579133686266 403.32632044741985 707.3684210526314 389.89473684210526 707.3684210526314ZM286.10526315789474 518.1052631578946C286.10526315789474 460.8684210526315 332.65789473684214 414.3157894736841 389.89473684210526 414.3157894736841C447.13157894736844 414.3157894736841 493.6842105263158 460.8684210526315 493.6842105263158 518.1052631578946C493.6842105263158 575.3268271998354 447.13157894736844 621.8947368421052 389.89473684210526 621.8947368421052C332.65789473684214 621.8947368421052 286.10526315789474 575.3421052631578 286.10526315789474 518.1052631578946ZM359.36842105263156 518.1052631578946C359.36842105263156 534.9558025159333 373.0365817421361 548.6315789473683 389.89473684210526 548.6315789473683C406.7605309737356 548.6315789473683 420.42105263157896 534.9634415475945 420.42105263157896 518.1052631578946C420.42105263157896 499.94211457905004 406.6842105263158 487.5789473684209 389.89473684210526 487.5789473684209C371.7315882632607 487.5789473684209 359.36842105263156 499.94211457905004 359.36842105263156 518.1052631578946ZM737.8947368421053 518.1052631578946C737.8947368421053 575.3268271998354 691.220020494963 620.5210619474711 633.9984098735608 620.5210619474711C633.9596557617188 620.5210619474711 634.037163985403 620.5210619474711 633.9984098735608 620.5210619474711C633.9596557617188 620.5210619474711 634.037163985403 620.5210619474711 633.9984098735608 620.5210619474711C576.7615677682977 620.5210619474711 530.1020829050165 573.9684303685237 530.1020829050165 518.1052631578946C530.1020829050165 460.8684210526315 576.7767992521588 415.68946436831817 633.9984098735608 415.68946436831817C634.037163985403 415.68946436831817 633.9596557617188 415.68946436831817 633.9984098735608 415.68946436831817C634.037163985403 415.68946436831817 633.9596557617188 415.68946436831817 633.9984098735608 415.68946436831817C691.1894643683182 414.3157894736841 737.8947368421053 460.8684210526315 737.8947368421053 518.1052631578946ZM664.4789380525289 518.1052631578946C664.4789380525289 501.28525663677004 650.8703292043585 487.67052258943244 634.059475547389 487.59420214201265C617.1631485788446 487.73158826326056 603.578947368421 499.94211457905004 603.578947368421 518.1052631578946C603.578947368421 534.9252463892885 617.1876027960526 548.5400037263569 633.9984098735608 548.6163008840459C650.7420959472656 548.4789380525287 664.4789380525289 534.8947368421052 664.4789380525289 518.1052631578946ZM707.3684210526316 707.3684210526314H634.1052631578948C620.6187390779194 707.3684210526314 609.6842105263158 718.2998753597861 609.6842105263158 731.7894736842104C609.6842105263158 745.2759977641857 620.6187390779194 756.2105263157894 634.1052631578948 756.2105263157894H707.3684210526316C720.854945132607 756.2105263157894 731.7894736842105 745.2759977641857 731.7894736842105 731.7894736842104C731.7894736842105 718.3579133686266 720.7999813682155 707.3684210526314 707.3684210526316 707.3684210526314ZM853.8947368421053 389.89473684210515V780.6315789473683C853.8947368421053 848.064199347245 799.2220940840872 902.7368421052631 731.7894736842105 902.7368421052631H292.2105263157895C224.74737307899878 902.7368421052631 170.10526315789474 848.0947554738897 170.10526315789474 780.6315789473683V389.89473684210515C170.10526315789474 322.4315603155838 224.74737307899878 267.7894736842104 292.2105263157895 267.7894736842104H475.3684210526316V157.8947368421051C475.3684210526316 137.67105263157885 491.85261294716287 121.26315789473676 512.0 121.26315789473676C532.1473870528372 121.26315789473676 548.6315789473684 137.67105263157885 548.6315789473684 157.8947368421051V267.7894736842104H731.7894736842105C799.252650210732 267.7894736842104 853.8947368421053 322.4315603155838 853.8947368421053 389.89473684210515ZM780.6315789473684 389.89473684210515C780.6315789473684 362.9705039576479 758.7137065686678 341.0526315789473 731.7894736842105 341.0526315789473H292.2105263157895C265.2863167210629 341.0526315789473 243.3684210526316 362.9705039576479 243.3684210526316 389.89473684210515V780.6315789473683C243.3684210526316 807.5558118318256 265.2863167210629 829.4736842105262 292.2105263157895 829.4736842105262H731.7894736842105C758.7137065686678 829.4736842105262 780.6315789473684 807.5558118318256 780.6315789473684 780.6315789473683V389.89473684210515ZM927.3104890522204 414.3157894736841H902.7368421052632V707.3684210526314H927.2800260844984C954.3262971576892 707.3684210526314 976.0 685.5421238949424 976.0 658.5263157894735V463.157894736842C976.0 436.14210992110395 954.173702842311 414.3157894736841 927.3104890522204 414.3157894736841ZM48.0 463.157894736842V658.5263157894735C48.0 685.4963362844366 69.76525477359169 707.3684210526314 96.7505300421464 707.3684210526314H121.26315789473685V414.3157894736841H96.88789287366366C69.91789566843133 414.3157894736841 48.0 436.14210992110395 48.0 463.157894736842Z"/>
</svg>
